<?xml version="1.0" encoding="utf-8"?>
<svg xmlns="http://www.w3.org/2000/svg" viewBox="479.208 274.654 134.683 111.726" width="134.683px" height="111.726px" xmlns:bx="https://boxy-svg.com"><defs><style type="text/css">
	.st0{opacity:0.1804;fill:#543BE3;}
	.st1{fill:#96ADF2;}
	.st2{fill:#C2410C;}
	.st3{fill:#3B2020;}
	.st4{fill:#FFF6C4;}
	.st5{fill:#F97316;}
	.st6{fill:#EB922D;}
	.st7{font-family:'Calibri-Bold';}
	.st8{font-size:120px;}
	.st9{fill:#566DB3;}
	.st10{fill:#2D3569;}
	.st11{fill:#CF6E29;}
	.st12{fill:#FFFFFF;stroke:#000000;stroke-width:3;stroke-miterlimit:10;}
	.st13{fill:#F97316;stroke:#060A00;stroke-miterlimit:10;}
	.st14{opacity:0.3412;fill:#543BE3;}
	.st15{opacity:0.0392;stroke:#000000;stroke-width:3;stroke-miterlimit:10;stroke-dasharray:12,12,12,12,12,12;}
	.st16{opacity:0.4784;stroke:#000000;stroke-width:3;stroke-miterlimit:10;stroke-dasharray:12,12,12,12,12,12;}
</style><bx:export><bx:file format="svg"/></bx:export></defs><path class="st2" d="M 554.485 305.316 C 554.485 288.384 568.048 274.654 584.788 274.654 C 598.378 274.654 609.879 283.706 613.72 296.181 L 613.72 305.316 L 554.485 305.316 Z" style=""/><polygon points="542.929 305.276 479.208 346.378 543.047 386.571" style="stroke-width: 0px;"/><rect x="542.84" y="305.17" class="st4" width="32.271" height="81.21" style=""/><path d="M542.84,386.38c9.22,0,16.69-18.18,16.69-40.6s-7.47-40.6-16.69-40.6" style="stroke-width: 0px;"/><path class="st5" d="M 613.734 386.394 L 613.734 305.051 L 570.148 305.051 C 568.353 305.051 566.901 309.128 566.901 314.156 C 566.901 319.184 568.353 323.261 570.148 323.261 C 567.936 323.261 566.144 328.289 566.144 334.489 C 566.144 340.689 567.936 345.717 570.148 345.717 C 568.353 345.717 566.901 349.794 566.901 354.822 C 566.901 359.851 568.353 363.927 570.148 363.927 C 567.936 363.927 566.144 368.955 566.144 375.156 C 566.144 381.356 567.936 386.384 570.148 386.384 L 613.734 386.384 L 613.734 386.394 Z" style=""/><path class="st5" d="M 573.9 306.872 C 573.9 289.941 587.62 276.21 604.541 276.21 C 607.76 276.21 610.863 276.707 613.778 277.628 L 613.778 306.872 L 573.9 306.872 Z" style=""/><ellipse cx="592.137" cy="328.661" rx="13.87" ry="14.32"/></svg>