<svg xmlns="http://www.w3.org/2000/svg" xml:space="preserve" width="1080" height="1080"><path fill="#c2410c" d="M595.27005 418.72652c0-138.33444 110.80971-250.50854 247.57551-250.50854 111.0303 0 204.99347 73.95484 236.37444 175.87559v74.63295H595.27005Z" vector-effect="non-scaling-stroke"/><path d="M520.8822 417.452.2898 753.239l521.5728 328.434z" vector-effect="non-scaling-stroke"/><rect width="29.712" height="81.21" x="-14.856" y="-40.605" fill="#fff6c4" rx="0" ry="0" transform="matrix(8.17 0 0 8.17 642.3701 749.3174)" vector-effect="non-scaling-stroke"/><path fill="#f97316" d="M1079.33438 1081.21548V416.64317H723.23676c-14.66515 0-26.52799 33.30909-26.52799 74.38785s11.86284 74.38785 26.52799 74.38785c-18.07204 0-32.71268 41.07876-32.71268 91.73276 0 50.654 14.64064 91.73276 32.71268 91.73276-14.66515 0-26.52799 33.30909-26.52799 74.38785 0 41.08693 11.86284 74.38785 26.52799 74.38785-18.07204 0-32.71268 41.07876-32.71268 91.74093 0 50.654 14.64064 91.73276 32.71268 91.73276h356.09762v.0817Z" vector-effect="non-scaling-stroke"/><path fill="#f97316" d="M753.8906 431.52074c0-138.32627 112.0924-250.50854 250.33697-250.50854 26.29923 0 51.65074 4.06049 75.46629 11.58506v238.92348H753.8906Z" vector-effect="non-scaling-stroke"/><ellipse rx="13.87" ry="14.32" transform="matrix(8.17 0 0 8.17 902.8297 609.5287)" vector-effect="non-scaling-stroke"/><path d="M518.44754 1080.42299c75.3274 0 136.3573-148.25282 136.3573-331.08108 0-182.83643-61.0299-331.08925-136.3573-331.08925" vector-effect="non-scaling-stroke"/></svg>